<svg xmlns="http://www.w3.org/2000/svg" width="24" height="24" viewBox="0 0 24 24">
    <g fill="none" fill-rule="evenodd">
        <g>
            <g>
                <g>
                    <g>
                        <g>
                            <path d="M0 0H24V24H0z" transform="translate(-88 -754) translate(0 132) translate(16 502) translate(4 87) translate(68 33)"/>
                            <path fill="#999" d="M12 5c3.864 0 7 3.136 7 7s-3.136 7-7 7-7-3.136-7-7 3.136-7 7-7zm0 1.3c-3.142 0-5.7 2.558-5.7 5.7 0 3.142 2.558 5.7 5.7 5.7 3.142 0 5.7-2.558 5.7-5.7 0-3.142-2.558-5.7-5.7-5.7z" transform="translate(-88 -754) translate(0 132) translate(16 502) translate(4 87) translate(68 33)"/>
                            <path fill="#999" fill-rule="nonzero" d="M9.5 10.21h1.27c.044-.659.492-1.08 1.19-1.08.68 0 1.135.405 1.135.967 0 .49-.191.772-.74 1.128l-.158.1c-.746.437-1.06.924-1.01 1.734l.005.368h1.254v-.308c0-.535.2-.81.908-1.227.735-.438 1.146-1.016 1.146-1.843C14.5 8.854 13.51 8 12.03 8c-1.606 0-2.487.93-2.53 2.21zm2.378 5.795c-.54 0-.897-.34-.897-.86 0-.523.357-.864.897-.864.552 0 .898.34.898.865 0 .519-.346.86-.898.86z" transform="translate(-88 -754) translate(0 132) translate(16 502) translate(4 87) translate(68 33)"/>
                        </g>
                    </g>
                </g>
            </g>
        </g>
    </g>
</svg>
